<svg xmlns="http://www.w3.org/2000/svg" viewBox="0 0 264 264" role="img" aria-label="jacket"><rect width="264" height="264" fill="#111316"/><rect x="14" y="14" width="236" height="236" fill="none" stroke="#ffffff" stroke-opacity=".07"/><path d="M86 40 L104 28 L132 46 L160 28 L178 40 L200 52 L214 214 L184 220 L182 236 L82 236 L80 220 L50 214 L64 52 Z" fill="#2b2e33"/><path d="M132 46 L132 236" stroke="#7e848d" stroke-width="4"/><path d="M104 28 L132 46 L160 28 L160 20 L132 34 L104 20 Z" fill="#7e848d"/><path d="M64 52 L50 214 L84 220 M200 52 L214 214 L180 220" fill="none" stroke="#7e848d" stroke-width="3" opacity=".5"/><circle cx="150" cy="146" r="8" fill="#7e848d" opacity=".65"/></svg>